<?xml version="1.0" standalone="no"?>
<!DOCTYPE svg PUBLIC "-//W3C//DTD SVG 20010904//EN"
 "http://www.w3.org/TR/2001/REC-SVG-20010904/DTD/svg10.dtd">
<svg version="1.0" xmlns="http://www.w3.org/2000/svg"
 width="219.000000pt" height="129.000000pt" viewBox="0 0 219.000000 129.000000"
 preserveAspectRatio="xMidYMid meet">
<metadata>
Created by potrace 1.15, written by Peter Selinger 2001-2017
</metadata>
<g transform="translate(0.000000,129.000000) scale(0.100000,-0.100000)"
fill="#000000" stroke="none">
<path d="M1955 1008 c-11 -6 -30 -20 -42 -30 -12 -11 -26 -17 -33 -13 -6 3 -9
2 -8 -4 3 -9 -135 -102 -447 -303 -60 -39 -126 -81 -145 -94 -86 -55 -168
-102 -173 -98 -2 2 -16 0 -31 -6 -20 -7 -25 -7 -20 1 4 7 1 10 -7 7 -8 -3 -14
-11 -14 -19 0 -7 -8 -15 -18 -17 -9 -2 -17 1 -17 7 0 18 5 26 14 23 5 -2 17 5
27 14 16 14 21 15 36 3 17 -13 17 -12 0 14 -17 26 -15 53 2 43 4 -3 8 1 8 8 0
15 -27 17 -44 4 -7 -5 -16 -7 -21 -5 -4 3 -14 1 -22 -5 -12 -8 -12 -9 2 -4 10
3 20 0 24 -6 4 -7 10 -5 16 6 5 9 14 16 20 16 6 0 3 -9 -8 -21 -10 -12 -17
-23 -16 -26 2 -3 1 -8 -3 -11 -4 -4 -5 -1 -3 7 2 9 -6 16 -17 18 -16 3 -17 2
-5 -6 13 -9 13 -12 1 -23 -10 -10 -12 -10 -7 0 9 14 -3 16 -24 2 -12 -8 -12
-10 -1 -10 8 0 12 -3 8 -6 -3 -3 -11 -3 -17 1 -8 5 -6 13 6 26 17 19 17 19 -7
15 -13 -2 -23 -9 -21 -16 1 -6 -2 -9 -8 -5 -12 7 -80 -13 -80 -24 0 -4 -6 -8
-12 -9 -7 -1 -34 -4 -59 -8 -55 -8 -70 -1 -231 109 -65 44 -121 78 -124 75 -3
-4 0 -16 6 -28 11 -21 155 -218 230 -317 50 -64 82 -74 139 -42 39 21 42 22
93 6 29 -9 68 -19 87 -22 l33 -7 -3 78 c-3 60 -1 78 10 82 12 4 13 -9 7 -77
l-6 -81 38 0 c38 0 40 1 46 40 3 22 9 74 13 116 5 61 10 77 26 86 19 10 20 8
13 -52 -4 -34 -16 -90 -26 -124 -11 -33 -20 -62 -20 -63 0 -12 54 1 68 15 20
20 78 190 88 260 5 31 14 48 35 63 27 19 29 19 29 3 0 -33 -52 -188 -85 -256
-18 -38 -31 -68 -28 -68 3 0 33 14 68 31 73 36 161 112 149 130 -4 8 -3 10 4
5 15 -9 66 70 88 138 10 28 20 80 23 116 l6 65 198 126 c110 70 204 132 210
138 16 16 5 21 -18 9z"/>
<path d="M646 971 c-4 -5 4 -7 16 -5 21 4 21 4 -2 -8 -29 -14 -41 -29 -34 -40
3 -4 0 -8 -6 -8 -7 0 -9 -7 -6 -16 3 -8 2 -13 -3 -10 -28 18 -47 -235 -22
-283 7 -12 40 -40 73 -62 55 -35 67 -39 119 -38 32 1 56 5 54 9 -6 9 25 23 33
15 3 -3 -1 -5 -8 -5 -7 0 -11 -3 -8 -6 3 -3 33 8 66 25 l61 31 -19 55 c-26 75
-84 184 -121 226 -27 30 -26 29 5 -17 42 -60 103 -187 112 -231 5 -26 2 -33
-17 -43 -22 -10 -22 -10 -6 3 17 14 14 53 -3 42 -5 -3 -6 3 -3 14 6 23 -24 84
-38 76 -5 -4 -9 -3 -8 2 1 4 -1 21 -6 37 -6 23 -9 26 -17 13 -13 -25 -40 -10
-27 14 5 11 14 17 20 14 5 -4 9 -1 9 5 0 7 -6 10 -14 7 -8 -3 -23 3 -35 14
-12 11 -25 17 -30 14 -5 -3 -12 -1 -16 5 -3 5 -1 10 4 10 6 0 10 12 10 28 -1
21 -3 23 -6 6 -2 -12 -13 -24 -23 -27 -13 -3 -17 0 -13 9 3 8 9 11 14 8 14 -8
11 6 -5 21 -7 8 -17 11 -21 7 -3 -4 -13 2 -21 12 -10 14 -11 23 -3 33 11 13 1
19 -25 14 -5 -1 -4 4 2 12 7 8 9 17 5 20 -9 10 -31 9 -37 -2z"/>
<path d="M1685 878 c-77 -39 -146 -78 -153 -87 -9 -10 -11 -11 -6 -2 4 9 -6 6
-24 -8 -18 -12 -32 -20 -32 -16 0 3 -13 -1 -29 -9 -32 -17 -52 -50 -23 -39 14
6 15 5 2 -9 -8 -9 -25 -14 -38 -12 -21 4 -22 4 -5 -16 18 -21 28 -27 18 -11
-3 5 11 15 30 21 20 6 32 16 29 22 -4 6 2 8 17 3 19 -5 21 -4 9 4 -8 6 -11 11
-6 11 5 0 2 8 -5 18 -12 15 -12 16 2 5 9 -7 20 -9 24 -5 5 4 5 1 0 -6 -8 -16
77 30 175 93 36 22 89 56 118 74 50 32 61 42 45 40 -5 0 -71 -32 -148 -71z"/>
</g>
</svg>
